<svg id="Layer_1" enable-background="new 0 0 510 510" height="512" viewBox="0 0 510 510" width="512" xmlns="http://www.w3.org/2000/svg" fill="#797878"><g><path d="m60 0v510h390v-510zm360 30v90h-330v-90zm-330 450v-330h330v330z"/><path d="m255 195c-66.168 0-120 53.832-120 120 6.592 159.196 233.432 159.15 240-.001 0-66.167-53.832-119.999-120-119.999zm0 30c41.593 0 76.681 28.363 86.952 66.763-26.459-8.31-68.302-14.897-97.229 12.311-11.54 10.853-29.222 14.03-52.56 9.438-10.648-2.095-20.185-5.432-26.66-8.034 4.773-45.167 43.088-80.478 89.497-80.478zm0 180c-41.594 0-76.682-28.364-86.953-66.764 33.796 10.613 71.425 11.961 97.229-12.31 11.54-10.852 29.222-14.029 52.56-9.438 10.65 2.095 20.189 5.433 26.66 8.034-4.772 45.168-43.087 80.478-89.496 80.478z"/><path d="m120 60h30v30h-30z"/><path d="m180 60h30v30h-30z"/><path d="m240 60h30v30h-30z"/></g></svg>